# xmcd
#
# Track frame offsets:
#       150
#       17240
#       44375
#       78502
#       116330
#
# Disc length: 1927 seconds
#
# Revision: 2
# Processed by: cddbd v1.5.1PL0 Copyright (c) Steve Scherf et al.
# Submitted via: WaveLab 4.01
#
DISCID=35078505
DTITLE=Adrima - For love (Maxi)
DYEAR=1998
DGENRE=Dance
TTITLE0=Adrima - For love (Radio Mix)
TTITLE1=Adrima - For love (De Donatis Mix)
TTITLE2=Adrima - For love (Digital Domain Mix)
TTITLE3=Adrima - For love (Moonshine Mix)
TTITLE4=Adrima - For love (Bad House Club Mix)
EXTD=
EXTT0=
EXTT1=
EXTT2=
EXTT3=
EXTT4=
PLAYORDER=
